<?xml version="1.0" standalone="no"?>
<!DOCTYPE svg PUBLIC "-//W3C//DTD SVG 20010904//EN"
 "http://www.w3.org/TR/2001/REC-SVG-20010904/DTD/svg10.dtd">
<svg version="1.0" xmlns="http://www.w3.org/2000/svg"
 width="152.000000pt" height="152.000000pt" viewBox="0 0 152.000000 152.000000"
 preserveAspectRatio="xMidYMid meet">
<metadata>
Created by potrace 1.11, written by Peter Selinger 2001-2013
</metadata>
<g transform="translate(0.000000,152.000000) scale(0.100000,-0.100000)"
fill="#000000" stroke="none">
<path d="M30 1348 c-36 -80 -46 -76 193 -80 l212 -3 67 -33 c109 -54 162 -143
162 -277 -1 -103 -28 -168 -94 -228 -65 -58 -126 -77 -251 -77 -73 0 -99 -3
-99 -13 0 -7 97 -109 215 -227 l215 -215 0 -97 0 -98 55 0 55 0 0 105 0 105
78 0 c87 0 144 13 185 42 78 55 90 195 24 267 -46 50 -90 61 -249 61 l-148 0
0 -92 0 -92 -75 74 -75 75 48 18 c162 61 261 229 250 422 -9 145 -77 266 -188
333 -96 57 -135 65 -358 70 l-202 4 -20 -44z m926 -891 c32 -37 32 -87 0 -124
-23 -26 -31 -28 -110 -32 l-86 -3 0 97 0 97 86 -3 c79 -4 87 -6 110 -32z"/>
<path d="M0 770 l0 -410 65 0 65 0 0 179 0 179 123 4 c102 4 129 8 167 27 59
30 78 48 101 93 61 119 14 258 -105 314 -48 22 -63 24 -233 24 l-183 0 0 -410z
m314 300 c22 -5 51 -20 65 -35 22 -22 26 -34 26 -85 0 -52 -4 -63 -28 -87 -26
-27 -33 -28 -137 -31 l-110 -4 0 126 0 126 73 0 c39 0 90 -5 111 -10z"/>
</g>
</svg>
